<svg version="1.2" xmlns="http://www.w3.org/2000/svg" viewBox="0 0 270 34" width="270" height="34">
	<style>
		.s0 { fill: #ffffff } 
		.s1 { fill: #f13024 } 
	</style>
	<g id="Layer 1">
		<path id="ashik latheef" fill-rule="evenodd" class="s0" d="m1.39 21.24c0 7.29 4.72 12.14 10.62 12.14 3.71 0 6.36-1.77 7.75-3.79v3.41h5.94v-23.34h-5.94v3.33c-1.39-1.94-3.96-3.71-7.71-3.71-5.94 0-10.66 4.68-10.66 11.96zm18.37 0.09c0 4.42-2.95 6.87-6.19 6.87-3.16 0-6.15-2.53-6.15-6.96 0-4.42 2.99-6.78 6.15-6.78 3.24 0 6.19 2.44 6.19 6.87zm29.26 5.01c-0.16-8.55-13.1-5.9-13.1-10.15 0-1.35 1.14-2.23 3.33-2.23 2.32 0 3.75 1.22 3.92 3.03h5.64c-0.33-4.64-3.75-7.71-9.39-7.71-5.77 0-9.23 3.12-9.23 6.99 0 8.56 13.19 5.9 13.19 10.07 0 1.35-1.27 2.4-3.58 2.4-2.36 0-4.01-1.34-4.22-3.11h-5.94c0.26 4.34 4.34 7.75 10.2 7.75 5.69 0 9.18-3.03 9.18-7.04zm3.89 6.66h5.9v-12.89c0-3.75 2.06-5.78 5.26-5.78 3.12 0 5.19 2.03 5.19 5.78v12.89h5.89v-13.69c0-6.45-3.83-9.99-9.1-9.99-3.11 0-5.73 1.26-7.24 3.25v-10.75h-5.9zm27 0h5.9v-23.34h-5.9zm2.99-26.12c2.06 0 3.62-1.52 3.62-3.46 0-1.94-1.56-3.45-3.62-3.45-2.11 0-3.62 1.51-3.62 3.45 0 1.94 1.51 3.46 3.62 3.46zm9.01 26.12h5.9v-9.94l7.92 9.94h7.67l-10.37-11.63 10.28-11.71h-7.67l-7.83 9.9v-17.74h-5.9zm33.46 0h2.95v-31.18h-2.95zm7.65-11.54c0 7.2 4.68 11.88 10.96 11.88 4.59 0 7.79-2.49 9.14-5.44v5.1h2.95v-23h-2.95v5.05c-1.31-2.91-4.47-5.39-9.1-5.39-6.32 0-11 4.59-11 11.8zm20.1 0.04c0 5.73-3.83 9.27-8.55 9.27-4.85 0-8.56-3.5-8.56-9.31 0-5.86 3.71-9.23 8.56-9.23 4.72 0 8.55 3.54 8.55 9.27zm10.09 5.26c0 4.6 2.15 6.24 6.15 6.24h3.16v-2.53h-2.69c-2.66 0-3.63-0.88-3.63-3.71v-14.28h6.32v-2.48h-6.32v-5.78h-2.99v5.78h-3.2v2.48h3.2zm13.16 6.24h2.95v-12.56c0-5.6 2.99-8.3 7.29-8.3 4.21 0 6.99 2.61 6.99 7.71v13.15h2.91v-13.49c0-6.74-4.09-9.94-9.18-9.94-3.5 0-6.54 1.52-8.01 4.34v-12.09h-2.95zm46.48-7.29h-3.12c-0.84 3.07-3.5 5.14-7.42 5.14-4.29 0-8.04-2.82-8.3-8.22h19.09c0.08-0.8 0.08-1.39 0.08-2.31 0-5.86-4.12-10.66-10.87-10.66-6.61 0-11.29 4.5-11.29 11.84 0 7.28 4.76 11.84 11.29 11.84 5.78 0 9.48-3.29 10.54-7.63zm-10.66-13.53c4.25 0 8.13 2.7 8 8.05h-16.18c0.34-5.35 4.01-8.05 8.18-8.05zm36.66 13.53h-3.12c-0.84 3.07-3.5 5.14-7.42 5.14-4.29 0-8.04-2.82-8.3-8.22h19.09c0.08-0.8 0.08-1.39 0.08-2.31 0-5.86-4.12-10.66-10.87-10.66-6.61 0-11.29 4.5-11.29 11.84 0 7.28 4.76 11.84 11.29 11.84 5.78 0 9.48-3.29 10.54-7.63zm-10.66-13.53c4.25 0 8.13 2.7 8 8.05h-16.18c0.34-5.35 4.01-8.05 8.18-8.05zm15.94 20.82h2.95v-20.52h5.35v-2.49h-5.35v-1.6c0-3.33 1.26-4.76 5.18-4.76v-2.53c-5.81 0-8.13 2.36-8.13 7.29v1.6h-3.2v2.49h3.2z"/>
		<path class="s1" d="m265.19 33v-4.36h4.14v4.36z"/>
	</g>
</svg>